<mxfile host="app.diagrams.net" modified="2024-07-22T13:35:25.895Z" agent="Mozilla/5.0 (Windows NT 10.0; Win64; x64) AppleWebKit/537.36 (KHTML, like Gecko) Chrome/126.0.0.0 Safari/537.36 Edg/126.0.0.0" etag="2CNIPVxIAauEuIBOtFt9" version="24.7.1" type="github">
  <diagram name="Strona-1" id="s8tXZkVaGJ-B124eRI93">
    <mxGraphModel dx="1826" dy="797" grid="1" gridSize="10" guides="1" tooltips="1" connect="1" arrows="1" fold="1" page="0" pageScale="1" pageWidth="1169" pageHeight="827" math="0" shadow="0">
      <root>
        <mxCell id="0" />
        <mxCell id="1" parent="0" />
        <mxCell id="HANIBPlafQp_0aqR6eRZ-2" value="" style="rounded=1;whiteSpace=wrap;html=1;fillColor=#dae8fc;strokeColor=#6c8ebf;" vertex="1" parent="1">
          <mxGeometry x="40" y="40" width="1080" height="760" as="geometry" />
        </mxCell>
        <mxCell id="HANIBPlafQp_0aqR6eRZ-1" value="&lt;div&gt;Server&lt;/div&gt;serwer304.wisniowa.oedu.pl" style="rounded=0;whiteSpace=wrap;html=1;" vertex="1" parent="1">
          <mxGeometry x="-160" y="50" width="160" height="160" as="geometry" />
        </mxCell>
        <mxCell id="HANIBPlafQp_0aqR6eRZ-3" value="&lt;font style=&quot;font-size: 14px;&quot;&gt;DOCKER&lt;/font&gt;" style="text;html=1;align=center;verticalAlign=middle;whiteSpace=wrap;rounded=0;fontStyle=1" vertex="1" parent="1">
          <mxGeometry x="530" y="60" width="100" height="40" as="geometry" />
        </mxCell>
        <mxCell id="HANIBPlafQp_0aqR6eRZ-4" value="&lt;b&gt;guacamole/guacamole&lt;/b&gt;&lt;div&gt;&lt;div&gt;Apache Guacamole&amp;nbsp;&lt;/div&gt;&lt;div&gt;Server&lt;/div&gt;&lt;/div&gt;" style="whiteSpace=wrap;html=1;aspect=fixed;" vertex="1" parent="1">
          <mxGeometry x="90" y="130" width="160" height="160" as="geometry" />
        </mxCell>
        <mxCell id="HANIBPlafQp_0aqR6eRZ-7" value="&lt;b&gt;guacamole/guacd&lt;/b&gt;&lt;div&gt;Apache Guacamole&amp;nbsp;&lt;/div&gt;&lt;div&gt;Admin Panel&lt;/div&gt;" style="whiteSpace=wrap;html=1;aspect=fixed;" vertex="1" parent="1">
          <mxGeometry x="280" y="130" width="160" height="160" as="geometry" />
        </mxCell>
        <mxCell id="HANIBPlafQp_0aqR6eRZ-8" value="&lt;b&gt;postgres&lt;/b&gt;&lt;br&gt;&lt;div&gt;Apache Guacamole&amp;nbsp;&lt;/div&gt;&lt;div&gt;Postgres Database&lt;/div&gt;" style="whiteSpace=wrap;html=1;aspect=fixed;" vertex="1" parent="1">
          <mxGeometry x="470" y="130" width="160" height="160" as="geometry" />
        </mxCell>
        <mxCell id="HANIBPlafQp_0aqR6eRZ-9" value="&lt;b&gt;python&lt;/b&gt;&lt;div&gt;FastApi instance for&lt;/div&gt;&lt;div&gt;custom Cherry Admin Panel&lt;/div&gt;&lt;div&gt;API&lt;/div&gt;" style="whiteSpace=wrap;html=1;aspect=fixed;" vertex="1" parent="1">
          <mxGeometry x="90" y="330" width="160" height="160" as="geometry" />
        </mxCell>
        <mxCell id="HANIBPlafQp_0aqR6eRZ-10" value="&lt;b&gt;unit&lt;/b&gt;&lt;div&gt;NGINX Unit Web App Server for Cherry Admin Panel Frontend&lt;/div&gt;" style="whiteSpace=wrap;html=1;aspect=fixed;" vertex="1" parent="1">
          <mxGeometry x="280" y="330" width="160" height="160" as="geometry" />
        </mxCell>
      </root>
    </mxGraphModel>
  </diagram>
</mxfile>
